HIERARCHY
ROOT Hips
{
	OFFSET	0.00	0.00	0.00
	CHANNELS 6 Xposition Yposition Zposition Zrotation Xrotation Yrotation
	JOINT Spine
	{
		OFFSET	 0.00	0.01	 0.00
		CHANNELS 3 Zrotation Xrotation Yrotation
		JOINT Spine1
		{
			OFFSET	 0.00	 2.45913012437421	 0.00
			CHANNELS 3 Zrotation Xrotation Yrotation
            JOINT Neck
            {
                OFFSET	 0.00	 2.48462964506057	 0.00
                CHANNELS 3 Zrotation Xrotation Yrotation
                JOINT Head
                {
                    OFFSET	 0.00	 0.927524780924562	 0.00
                    CHANNELS 3 Zrotation Xrotation Yrotation
                    End Site 
                    {
                        OFFSET	 0.00	 1.14999962169752	 0.00
                    }
                }
            }
			JOINT LeftShoulder
			{
				OFFSET	 0.00	 2.48462964506057	 0.00
				CHANNELS 3 Zrotation Xrotation Yrotation
				JOINT LeftUpArm
				{
					OFFSET	 0.00	 1.24881979654096	 0.00
					CHANNELS 3 Zrotation Xrotation Yrotation
					JOINT LeftForeArm
					{
						OFFSET	 0.00	2.59758046908119	 0.00
						CHANNELS 3 Zrotation Xrotation Yrotation
						JOINT LeftHand
						{
							OFFSET	 0.00	2.45542024364365	 0.00
							CHANNELS 3 Zrotation Xrotation Yrotation
							JOINT LeftHandThumb 
							{
								OFFSET	 0.00	0.00	 0.00
								CHANNELS 3 Zrotation Xrotation Yrotation
								End Site
								{
									OFFSET	 0.00	0.00	1.00000003353624
								}
							}
							JOINT L_Wrist_End 
							{
								OFFSET	 0.00	0.99999967115358	 0.00
								CHANNELS 3 Zrotation Xrotation Yrotation
								End Site 
								{
									OFFSET	 0.00	 0.00	 0.00
								}
							}
						}
					}
				}
			}
			JOINT RightShoulder
			{
				OFFSET	 0.00	 2.48462964506057	 0.00
				CHANNELS 3 Zrotation Xrotation Yrotation
				JOINT RightUpArm
				{
					OFFSET	 0.00	 1.24881979654096	 0.00
					CHANNELS 3 Zrotation Xrotation Yrotation
					JOINT RightForeArm
					{
						OFFSET	 0.00	2.59758046908119	 0.00
						CHANNELS 3 Zrotation Xrotation Yrotation
						JOINT RightHand
						{
							OFFSET	 0.00	2.45542024364365	 0.00
							CHANNELS 3 Zrotation Xrotation Yrotation
							JOINT RightHandThumb 
							{
								OFFSET	 0.00	0.00	 0.00
								CHANNELS 3 Zrotation Xrotation Yrotation
								End Site
								{
									OFFSET	 0.00	0.00	1.00000003353624
								}
							}
							JOINT R_Wrist_End 
							{
								OFFSET	 0.00	0.99999967115358	 0.00
								CHANNELS 3 Zrotation Xrotation Yrotation
								End Site 
								{
									OFFSET	 0.00	 0.00	 0.00
								}
							}
						}
					}
				}
			}
		}
	}
	JOINT LeftUpLeg
	{
		OFFSET	 1.2719394002717	 0.00	 0.00
		CHANNELS 3 Zrotation Xrotation Yrotation
		JOINT LeftLowLeg
		{
			OFFSET	 0.00	-4.3429100912261	 0.00
			CHANNELS 3 Zrotation Xrotation Yrotation
			JOINT LeftFoot
			{
				OFFSET	 0.00	-4.48767017425826	 0.00
				CHANNELS 3 Zrotation Xrotation Yrotation
				JOINT LeftToeBase
                {
                    OFFSET	 0.00	0.00	 1.51507020887566
                    CHANNELS 3 Zrotation Xrotation Yrotation
                    End Site 
                    {
                        OFFSET	 0.00	0.00	 0.75000010571191
                    }
                }
			}
		}
	}
	JOINT RightUpLeg
	{
		OFFSET	 -1.2719393604653	 0.00	 0.00
		CHANNELS 3 Zrotation Xrotation Yrotation
		JOINT RightLowLeg
		{
			OFFSET	 0.00	-4.3429100912261	 0.00
			CHANNELS 3 Zrotation Xrotation Yrotation
			JOINT RightFoot
			{
				OFFSET	 0.00	-4.48767017425826	 0.00
				CHANNELS 3 Zrotation Xrotation Yrotation
				JOINT RightToeBase
                {
                    OFFSET	 0.00	0.00	 1.51507020887566
                    CHANNELS 3 Zrotation Xrotation Yrotation
                    End Site 
                    {
                        OFFSET	 0.00	0.00	 0.749999965609858
                    }
                }   
			}
		}
	}
}
MOTION 
Frames:	6 
Frame Time: 0.02 
  3.0753399658203127 -8.573779907226562 9.70114013671875 27.6223 84.0276 -272.223 7.23404 -10.0589 -2.80344 7.53305 14.3438 -3.37167 -5.03393 32.8156 6.34569 -3.0999 -50.248 7.2576 -104.5556 3.13666 5.44615 -53.5847 20.83 58.912 0.0 106.67 0.0 -1.67051 -11.8453 -13.6603 0.0 0.0 0.0 0.0 0.0 0.0 107.626 2.82369 -5.54367 62.0443 48.3174 -34.5002 0.0 143.778 0.0 -37.4072 -15.2769 8.93204 0.0 0.0 0.0 0.0 0.0 0.0 3.89245 -4.88879 -10.2533 0.0 45.0681 0.0 13.9448 6.04235 -27.5957 0.0 -51.1262 0.0 5.80124 -10.1309 5.93095 0.0 12.3741 0.0 11.3851 15.031192 1.81718 0.0 -30.0652 0.0 
  3.1692401123046876 -8.581240234375 9.705079956054687 27.581 83.8894 -270.781 7.34739 -10.1228 -3.13495 7.93176 14.2617 -3.72868 -4.90976 32.4495 6.30206 -3.25889 -50.3788 7.45036 -104.612 3.4752 5.66581 -53.2479 21.2361 59.095 0.0 107.354 0.0 -2.06852 -11.6524 -13.6346 0.0 0.0 0.0 0.0 0.0 0.0 107.6865 2.93074 -5.42306 61.9766 48.4572 -34.1358 0.0 144.016 0.0 -37.2678 -15.9362 8.32652 0.0 0.0 0.0 0.0 0.0 0.0 4.57409 -7.12736 -9.16732 0.0 48.8603 0.0 10.3158 8.92137 -29.1175 0.0 -50.311 0.0 6.02738 -9.16574 6.00907 0.0 11.6205 0.0 11.918 14.574786 0.935237 0.0 -29.7477 0.0 
  3.26 -8.586370239257812 9.709959716796876 28.5697 83.8581 -270.342 7.34806 -10.2346 -3.48206 8.27011 14.4765 -4.1026 -4.59945 32.0424 6.04671 -3.43568 -50.5841 7.68444 -104.7636 3.79347 5.81746 -52.8062 21.7819 59.1401 0.0 107.757 0.0 -3.09483 -11.4405 -13.151 0.0 0.0 0.0 0.0 0.0 0.0 107.8519 3.14306 -5.07519 61.7027 48.4248 -33.6004 0.0 144.277 0.0 -36.6262 -16.513 8.49413 0.0 0.0 0.0 0.0 0.0 0.0 5.05311 -9.13851 -8.21578 0.0 52.3697 0.0 7.53245 11.65827 -29.5956 0.0 -49.0481 0.0 6.16633 -8.11946 5.83109 0.0 10.9059 0.0 12.4224 13.98825 0.0851306 0.0 -29.5511 0.0 
  3.347090148925781 -8.588109741210937 9.717100219726563 31.2172 83.915 -271.706 7.19712 -10.2346 -3.76561 8.72993 14.9157 -4.38797 -4.34013 31.4231 5.81761 -3.53623 -50.6343 7.74613 -104.9654 4.1059 5.86515 -52.5199 22.38 59.2898 0.0 107.793 0.0 -4.62598 -11.1064 -13.5827 0.0 0.0 0.0 0.0 0.0 0.0 107.9759 3.25386 -4.75945 61.4864 48.5534 -33.4132 0.0 144.348 0.0 -36.4799 -16.5135 9.4399 0.0 0.0 0.0 0.0 0.0 0.0 5.38657 -10.7799 -7.20051 0.0 55.5384 0.0 5.68998 13.72929 -28.9726 0.0 -47.0953 0.0 6.20871 -6.95784 5.03391 0.0 10.2785 0.0 12.378 13.45158 -0.284982 0.0 -29.014301 0.0 
  3.4310699462890626 -8.588610229492188 9.7264599609375 33.922 84.0315 -273.26 6.9218 -10.231 -4.04181 9.24466 15.4023 -4.63353 -4.15629 30.7662 5.66768 -3.51884 -50.4831 7.74526 -105.1419 4.35089 5.79291 -52.3873 22.8774 59.5625 0.0 107.562 0.0 -5.10718 -10.8724 -11.4946 0.0 0.0 0.0 0.0 0.0 0.0 108.138504 3.56539 -4.69583 61.0336 48.634 -32.6658 0.0 144.606 0.0 -36.1254 -16.7692 9.45681 0.0 0.0 0.0 0.0 0.0 0.0 5.66203 -12.14 -5.85849 0.0 58.2812 0.0 4.88253 14.284711 -26.2384 0.0 -45.0925 0.0 6.19503 -5.8326 3.9451 0.0 9.65192 0.0 12.2195 13.07418 -0.33921 0.0 -28.7766 0.0 
  3.5123800659179687 -8.588300170898437 9.738040161132812 35.6719 84.2226 -274.03 6.55597 -10.3285 -4.15639 9.79014 15.9105 -4.6819 -4.08481 30.2445 5.57611 -3.4318 -50.3936 7.54659 -105.2266 4.77671 5.70684 -52.4716 23.2021 59.9044 0.0 107.208 0.0 -5.34028 -10.6168 -13.7403 0.0 0.0 0.0 0.0 0.0 0.0 108.2932 3.67752 -4.73286 60.7142 48.7676 -31.9887 0.0 144.791 0.0 -35.7984 -16.8951 9.29243 0.0 0.0 0.0 0.0 0.0 0.0 5.95683 -13.3273 -4.03497 0.0 60.4866 0.0 5.17849 12.54184 -19.6576 0.0 -43.6938 0.0 6.12939 -4.81659 2.83178 0.0 8.95986 0.0 12.0185 12.85995 -0.23687 0.0 -28.6668 0.0 
